<?xml version="1.0" encoding="utf-8"?>
<!-- Generator: Adobe Illustrator 16.0.0, SVG Export Plug-In . SVG Version: 6.00 Build 0)  -->
<!DOCTYPE svg PUBLIC "-//W3C//DTD SVG 1.1//EN" "http://www.w3.org/Graphics/SVG/1.1/DTD/svg11.dtd">
<svg version="1.1" id="Layer_1" xmlns="http://www.w3.org/2000/svg" xmlns:xlink="http://www.w3.org/1999/xlink" x="0px" y="0px"
     width="659.967px" height="298.482px" viewBox="0 0 659.967 298.482" enable-background="new 0 0 659.967 298.482"
     xml:space="preserve">
<g>
    <path fill="#f40033" d="M109.233,57.63c6.398-3.197,14.747-6.999,25.05-11.4c10.299-4.396,21.497-8.499,33.6-12.3
        c12.099-3.797,24.6-7.05,37.5-9.75c12.9-2.7,25.097-4.05,36.6-4.05c11.498,0,21.849,1.8,31.05,5.4
        c9.197,3.6,16.097,9.702,20.7,18.3c1.997,3.801,2.4,7.453,1.2,10.95c-1.2,3.502-3.45,6.802-6.75,9.899
        c-3.3,3.104-7.252,5.901-11.851,8.4c-4.603,2.503-9.3,4.702-14.1,6.6c-4.8,1.903-9.3,3.353-13.5,4.351
        c-4.2,1.003-7.401,1.5-9.6,1.5c-5.001,0.201-9.3-0.348-12.9-1.65c-3.6-1.298-6.3-2.798-8.1-4.5c-1.8-1.697-2.503-3.347-2.1-4.95
        c0.398-1.599,2.1-2.597,5.1-3c2.4-0.397,5.747-1.147,10.05-2.25c4.298-1.097,8.896-2.447,13.8-4.05
        c4.898-1.598,9.75-3.45,14.55-5.55c4.8-2.101,8.948-4.2,12.45-6.3c3.497-2.101,5.948-4.247,7.35-6.45
        c1.397-2.199,1.2-4.298-0.6-6.3c-4.2-4.2-10.701-6.45-19.5-6.75c-8.803-0.301-19.003,0.899-30.6,3.6
        c-11.602,2.7-24.103,6.6-37.5,11.7c-13.401,5.1-26.901,10.95-40.5,17.55c-13.603,6.6-26.751,13.65-39.45,21.15
        c-12.703,7.5-24.15,15.052-34.35,22.649c-10.2,7.604-18.6,15-25.2,22.2c-6.6,7.2-10.5,13.603-11.7,19.2c-0.802,3.801,0.197,6,3,6.6
        c2.798,0.601,6.197,0.553,10.2-0.149c3.999-0.697,8.048-1.748,12.15-3.149c4.097-1.397,7.05-2.297,8.85-2.7
        c7.8-1.996,15.947-4.246,24.45-6.75c8.499-2.498,17.048-4.8,25.65-6.899c8.597-2.101,17.147-3.9,25.65-5.4
        c8.499-1.5,16.847-2.147,25.05-1.95c4.8,0.201,10.05,1.65,15.75,4.351c5.7,2.699,10.697,6.253,15,10.649
        c4.298,4.402,7.247,9.45,8.85,15.15c1.599,5.699,0.699,11.651-2.7,17.85c-3.802,6.601-9.652,13.2-17.55,19.801
        c-7.903,6.601-17.053,12.802-27.45,18.601c-10.402,5.799-21.501,10.949-33.3,15.449c-11.803,4.5-23.451,7.998-34.95,10.5
        c-11.503,2.5-22.35,3.797-32.55,3.899c-10.2,0.101-18.9-1.453-26.1-4.649c-5.203-2.398-9.652-6.052-13.35-10.949
        c-3.703-4.902-6.15-10.103-7.35-15.601c-1.2-5.498-0.802-10.801,1.2-15.899c1.997-5.101,6-9.15,12-12.15
        c1.997-0.797,4.2-0.797,6.6,0c2.4,0.802,4.449,1.95,6.15,3.45c1.697,1.5,2.798,3.103,3.3,4.8c0.497,1.701-0.052,3.052-1.65,4.051
        c-7.2,4.604-11.902,8.603-14.1,12c-2.203,3.402-2.602,6.201-1.2,8.4c1.397,2.197,4.2,3.848,8.4,4.949
        c4.2,1.098,9.098,1.649,14.7,1.649c5.597,0,11.499-0.403,17.7-1.2c6.197-0.802,12.098-2.101,17.7-3.898
        c16.997-5.199,33.75-11.852,50.25-19.951c16.5-8.099,32.25-19.05,47.25-32.85c7.397-6.797,10.95-11.747,10.65-14.851
        c-0.3-3.1-3.202-4.848-8.7-5.25c-5.503-0.397-12.952,0.201-22.35,1.8c-9.403,1.604-19.453,3.554-30.15,5.851
        c-10.702,2.302-21.45,4.649-32.25,7.05c-10.8,2.401-20.203,4.2-28.2,5.4c-3.801,0.6-7.95,0.854-12.45,0.75
        c-4.5-0.1-8.902-0.497-13.2-1.2c-4.303-0.698-8.4-1.8-12.3-3.3s-7.153-3.45-9.75-5.851c-7.8-6.999-10.702-14.896-8.7-23.7
        c1.997-8.799,7.148-17.799,15.45-27c8.297-9.197,18.999-18.301,32.1-27.301C80.78,73.23,94.631,65.032,109.233,57.63z"/>
    <path fill="#f40033" d="M282.929,146.73c3.998-3.601,6.998-4.696,9-3.3c1.996,1.402,1.199,4.302-2.4,8.7
        c-2.4,3-5.301,6.148-8.699,9.45c-3.404,3.3-6.854,6.401-10.35,9.3c-3.502,2.901-6.75,5.398-9.75,7.5c-3,2.101-5.303,3.352-6.9,3.75
        c-2.203,0.202-4.754-0.196-7.65-1.2c-2.901-0.998-5.7-2.498-8.4-4.5c-2.7-1.996-4.903-4.448-6.6-7.35
        c-1.697-2.896-2.348-6.15-1.95-9.75c0.403-3.398,1.35-7.148,2.85-11.25c1.5-4.098,3.249-7.848,5.25-11.25
        c1.997-3.398,3.999-6.197,6-8.4c1.997-2.199,3.797-3.197,5.401-3c1.396,0.403,2.896,0.951,4.5,1.65
        c1.598,0.703,3.047,1.5,4.35,2.399c1.299,0.9,2.348,1.95,3.15,3.15c0.797,1.2,1.096,2.602,0.898,4.2
        c-0.201,1.603-1.102,3.952-2.699,7.05c-1.604,3.103-3.201,6.253-4.801,9.45c-1.602,3.201-3,6.104-4.199,8.698
        c-1.199,2.603-1.401,4.201-0.6,4.802c0.6,0.401,2.049,0.149,4.35-0.75c2.297-0.9,4.996-2.25,8.1-4.052
        c3.1-1.799,6.498-3.997,10.201-6.6C275.677,152.833,279.33,149.932,282.929,146.73z M271.529,117.33c-1.199,0-2.699-0.3-4.5-0.9
        c-1.799-0.6-3.449-1.396-4.949-2.399c-1.5-0.998-2.701-2.146-3.6-3.45c-0.9-1.298-1.252-2.648-1.051-4.05
        c0.197-1.2,0.75-2.799,1.65-4.801c0.9-1.997,1.949-3.946,3.15-5.85c1.199-1.898,2.549-3.548,4.049-4.95
        c1.5-1.396,2.949-2.297,4.35-2.7c1.398-0.196,3.1,0.053,5.102,0.75c1.996,0.703,3.898,1.702,5.699,3
        c1.801,1.304,3.248,2.7,4.35,4.2c1.098,1.5,1.547,2.751,1.35,3.75c0,1.2-0.6,2.751-1.799,4.65c-1.201,1.902-2.602,3.75-4.201,5.55
        c-1.602,1.8-3.299,3.403-5.1,4.8C274.23,116.332,272.73,117.133,271.529,117.33z"/>
    <path fill="#f40033" d="M293.726,133.23c1.397-0.797,3.249-1.199,5.551-1.199c2.297,0,4.547,0.3,6.75,0.899
        c2.197,0.601,4.097,1.453,5.698,2.55c1.6,1.103,2.298,2.354,2.102,3.75c0,1.801-1.153,4.103-3.45,6.9
        c-2.302,2.804-4.753,5.55-7.35,8.25c-2.602,2.7-4.903,5.054-6.9,7.05c-2.002,2.002-2.7,3-2.1,3s1.898-0.797,3.899-2.399
        c1.997-1.599,4.351-3.601,7.05-6c2.7-2.399,5.598-5.049,8.7-7.949c3.1-2.896,6.047-5.648,8.852-8.25
        c2.798-2.598,5.297-4.8,7.5-6.601c2.197-1.8,3.697-2.896,4.5-3.3c1.8-0.6,3.697-0.646,5.699-0.149c1.996,0.502,3.9,1.199,5.699,2.1
        c1.801,0.9,3.301,2.001,4.5,3.3c1.201,1.303,1.898,2.55,2.103,3.75c0.194,2.603-1.402,6.15-4.802,10.65
        c-3.401,4.5-7.5,9.951-12.3,16.35c5.798-6,11.296-11.498,16.5-16.5c4.398-4.199,8.552-8.25,12.451-12.149
        c3.9-3.9,6.646-6.348,8.25-7.351c1.396-0.999,3.248-1.299,5.549-0.899c2.297,0.402,4.5,1.252,6.603,2.55
        c2.1,1.303,3.848,2.953,5.25,4.95c1.396,2.002,1.996,4.003,1.799,6c-0.201,1.003-1.102,2.601-2.699,4.8
        c-1.604,2.203-3.553,4.551-5.85,7.05c-2.304,2.503-4.65,5.101-7.051,7.8c-2.4,2.7-4.5,5.152-6.302,7.351
        c-1.799,2.202-3.051,3.951-3.75,5.25c-0.703,1.304-0.448,1.852,0.75,1.649c0.797-0.197,3.101-1.649,6.9-4.35
        c3.797-2.7,7.951-5.7,12.451-9c4.5-3.301,8.85-6.398,13.049-9.301c4.201-2.896,7.098-4.847,8.701-5.851
        c3.397-1.8,5.85-2.498,7.35-2.1c1.5,0.401,0.848,2.301-1.951,5.698c-1.602,1.802-3.95,4.5-7.049,8.102
        c-3.104,3.601-6.553,7.351-10.35,11.25c-3.804,3.898-7.604,7.453-11.4,10.648c-3.803,3.202-7.201,5.203-10.201,6
        c-3,1.005-6.147,1.201-9.448,0.602c-3.302-0.6-6.302-1.599-9-3c-2.699-1.397-5.003-3.099-6.9-5.102
        c-1.902-1.995-2.953-3.997-3.15-6c0-0.997,0.349-2.348,1.051-4.049c0.699-1.696,1.599-3.451,2.699-5.25
        c1.099-1.801,2.148-3.451,3.15-4.951c0.998-1.5,1.697-2.445,2.1-2.85c-2,2.002-4.399,4.453-7.199,7.35
        c-2.803,2.902-5.651,5.701-8.551,8.4c-2.9,2.7-5.699,5.053-8.398,7.051c-2.7,2.001-4.853,3.104-6.45,3.299
        c-2.603,0.602-5.302-0.047-8.101-1.948c-2.804-1.898-4.199-3.947-4.199-6.15c0-0.797,0.496-2.297,1.5-4.5
        c0.998-2.198,2.146-4.5,3.449-6.899c1.299-2.399,2.551-4.696,3.75-6.899c1.199-2.198,1.897-3.797,2.101-4.8
        c-6.403,5.803-12.202,10.901-17.4,15.3c-4.603,4.003-8.953,7.552-13.05,10.649c-4.102,3.104-6.75,4.852-7.95,5.25
        c-1.003,0.403-2.349,0.403-4.05,0c-1.697-0.398-3.347-1.05-4.95-1.949c-1.599-0.9-3.047-1.997-4.35-3.301
        c-1.299-1.299-2.049-2.648-2.25-4.05c-0.398-1.396,0.45-4.2,2.55-8.399c2.1-4.2,4.604-8.551,7.5-13.051
        c2.901-4.5,5.799-8.648,8.7-12.449C290.473,136.033,292.527,133.83,293.726,133.23z"/>
    <path fill="#f40033" d="M347.123,286.529c-0.998,1.601-2.746,2.648-5.25,3.15c-2.498,0.498-4.898,0.498-7.2,0
        c-2.297-0.502-4.147-1.604-5.55-3.299c-1.396-1.703-1.396-4.051,0-7.051c1.003-2.203,3.202-6.353,6.601-12.449
        c3.403-6.104,7.552-13.353,12.45-21.75c4.902-8.4,10.351-17.603,16.351-27.603c6-9.998,12.104-20.048,18.301-30.148
        c6.201-10.097,12.299-19.898,18.299-29.399c6-9.498,11.447-18,16.352-25.5c4.898-7.5,9.099-13.599,12.601-18.3
        c3.496-4.697,5.746-7.247,6.75-7.65c1.996-1.199,4.199-1.35,6.6-0.449c2.401,0.899,4.547,2.15,6.449,3.75
        c1.898,1.603,3.451,3.352,4.65,5.25c1.2,1.902,1.5,3.449,0.899,4.649c-0.401,1.2-1.151,2.55-2.25,4.05
        c-1.102,1.5-2.651,3.652-4.649,6.45c-2.002,2.804-4.604,6.403-7.8,10.8c-3.202,4.402-7.2,9.9-12,16.5
        c3-2.798,6.099-5.647,9.3-8.549c3.196-2.896,6.047-5.55,8.551-7.951c2.498-2.399,4.649-4.396,6.449-6
        c1.801-1.598,2.896-2.497,3.301-2.699c0.797-0.398,2.348-0.45,4.649-0.15c2.298,0.3,4.695,0.9,7.199,1.8
        c2.498,0.9,4.801,2.001,6.9,3.3c2.1,1.304,3.346,2.653,3.75,4.051c0.397,1.003,0,2.452-1.201,4.35c-1.199,1.903-2.699,3.9-4.5,6
        c-1.799,2.101-3.801,4.351-6,6.75c-2.203,2.4-4.199,4.552-6,6.45c-1.799,1.903-3.148,3.601-4.049,5.101
        c-0.901,1.5-1.051,2.451-0.451,2.851c1,0.6,3.85-0.349,8.551-2.851c4.697-2.499,9.9-5.499,15.601-9
        c5.7-3.498,11.049-6.946,16.051-10.351c4.996-3.398,8.297-5.798,9.899-7.2c3-3,5.197-3.75,6.601-2.25
        c1.396,1.5,1.199,3.652-0.601,6.45c-1.004,1.401-3.651,4.102-7.95,8.101c-4.304,4.002-9.052,8.25-14.25,12.75
        c-5.203,4.5-10.304,8.603-15.3,12.299c-5.002,3.703-8.602,5.852-10.801,6.451c-3,0.601-6.201,0.601-9.6,0
        c-3.404-0.601-6.601-1.6-9.601-3c-3-1.396-5.602-3.196-7.801-5.399c-2.203-2.199-3.402-4.6-3.6-7.2
        c-0.201-1.2,0.197-2.798,1.199-4.8c0.998-1.997,2.1-3.998,3.301-6c1.396-2.199,3-4.6,4.799-7.2
        c-4.002,3.202-7.902,6.501-11.699,9.899c-3.402,2.804-6.899,6-10.5,9.601c-3.6,3.601-6.801,7.102-9.6,10.5
        c-8.199,12.202-18,27.3-29.4,45.3C370.524,246.931,358.928,266.131,347.123,286.529z"/>
    <path fill="#f40033" d="M563.123,146.13c4.598-2.798,7.396-3.6,8.398-2.4c1,1.2-0.103,3.403-3.3,6.601
        c-3.403,3.201-7.004,6.449-10.801,9.75c-3.801,3.3-7.551,6.401-11.25,9.3c-3.703,2.901-7.35,5.353-10.949,7.351
        c-3.6,2.001-6.899,3.3-9.899,3.899c-2.603,0.403-5.603,0.45-9,0.149c-3.402-0.3-6.601-1.148-9.601-2.55
        c-3-1.396-5.498-3.348-7.5-5.851c-1.998-2.499-3-5.747-3-9.75c0-2.399,1.853-7.397,5.55-15c3.698-7.598,8.598-16.397,14.7-26.4
        c6.099-9.999,12.998-20.647,20.699-31.949c7.697-11.298,15.699-21.947,24-31.95c8.297-9.999,16.449-18.699,24.451-26.101
        c7.996-7.396,15.299-12.196,21.897-14.399c1.998-0.797,4.802-1.098,8.4-0.9c3.6,0.201,7.098,0.854,10.5,1.95
        c3.398,1.102,6.348,2.7,8.85,4.8c2.5,2.101,3.75,4.551,3.75,7.351c0,3.201-1.799,7.604-5.397,13.199
        c-3.603,5.603-8.4,11.851-14.4,18.75c-6,6.9-12.899,14.303-20.701,22.2c-7.799,7.903-16.002,15.75-24.6,23.55
        c-8.602,7.801-17.203,15.253-25.799,22.351c-8.603,7.102-16.604,13.35-24,18.75c-2.203,3-4.004,5.803-5.4,8.399
        c-1.201,2.203-2.151,4.351-2.85,6.449c-0.703,2.1-0.555,3.553,0.449,4.35c0.6,0.602,3,0,7.198-1.799
        c4.201-1.801,8.853-3.999,13.951-6.601c5.101-2.597,10.096-5.25,15-7.95C557.371,148.98,560.92,147.133,563.123,146.13z
         M623.723,31.531c-0.803-0.998-2.653-0.398-5.551,1.8c-2.9,2.203-6.449,5.503-10.65,9.899c-4.198,4.401-8.803,9.554-13.799,15.45
        c-5.002,5.901-10.102,11.953-15.301,18.15c-12.201,14.803-25.799,31.902-40.799,51.3c2.596-1.997,6.697-5.499,12.299-10.5
        c5.598-4.997,11.748-10.847,18.451-17.55c6.697-6.699,13.598-13.697,20.699-21c7.098-7.298,13.396-14.199,18.899-20.7
        c5.498-6.497,9.797-12.197,12.9-17.1C623.971,36.381,624.922,33.133,623.723,31.531z"/>
    <path fill="#f40033" d="M635.119,147.029c3.797-2.798,5.896-3.697,6.301-2.698c0.398,1.003-0.301,2.9-2.1,5.698
        c-1.801,3-4.353,6.503-7.65,10.5c-3.301,4.005-6.951,7.802-10.951,11.4c-4.002,3.6-8.203,6.802-12.6,9.6
        c-4.4,2.805-8.502,4.5-12.299,5.102c-2.603,0.403-6-0.249-10.201-1.95c-4.199-1.697-8.25-4.147-12.15-7.35
        c-3.897-3.197-7.151-6.9-9.75-11.101c-2.596-4.201-3.496-8.499-2.698-12.899c0.6-3.601,2.1-7.052,4.5-10.351
        c2.399-3.3,5.1-6.196,8.1-8.699c3-2.498,6.047-4.5,9.15-6c3.098-1.5,5.745-2.25,7.948-2.25c1.802,0,3.851,0.502,6.15,1.5
        c2.297,1.003,4.396,2.302,6.301,3.899c1.898,1.604,3.398,3.45,4.5,5.55c1.096,2.101,1.547,4.251,1.351,6.45
        c-0.402,2.203-1.902,4.753-4.5,7.65c-2.603,2.9-5.505,5.752-8.699,8.55c-3.603,3.202-7.801,6.501-12.603,9.898
        c4.398,1.201,11.447-0.195,21.15-4.198C614.068,161.332,624.32,155.232,635.119,147.029z M599.719,141.33
        c-0.801-0.601-2.651-0.15-5.549,1.35c-2.902,1.5-5.752,3.45-8.551,5.849c-2.803,2.4-5.15,5.055-7.049,7.951
        c-1.904,2.9-2.354,5.354-1.353,7.351c1.201-0.601,3.15-1.997,5.853-4.2c2.698-2.198,5.397-4.599,8.1-7.2
        c2.699-2.597,4.949-4.949,6.75-7.05C599.719,143.281,600.32,141.93,599.719,141.33z"/>
</g>
</svg>
